<svg xmlns="http://www.w3.org/2000/svg" width="1200" height="630" viewBox="0 0 1200 630">
  <defs>
    <!-- Background gradient -->
    <radialGradient id="bgGrad" cx="50%" cy="50%" r="80%">
      <stop offset="0%" stop-color="#060f18"/>
      <stop offset="100%" stop-color="#020609"/>
    </radialGradient>

    <!-- Cyan glow -->
    <radialGradient id="cyanOrb" cx="75%" cy="20%" r="50%">
      <stop offset="0%" stop-color="#00e5ff" stop-opacity="0.18"/>
      <stop offset="100%" stop-color="#00e5ff" stop-opacity="0"/>
    </radialGradient>

    <!-- Purple glow -->
    <radialGradient id="purpleOrb" cx="20%" cy="80%" r="45%">
      <stop offset="0%" stop-color="#8b5cf6" stop-opacity="0.16"/>
      <stop offset="100%" stop-color="#8b5cf6" stop-opacity="0"/>
    </radialGradient>

    <!-- Pink accent glow -->
    <radialGradient id="pinkOrb" cx="85%" cy="85%" r="30%">
      <stop offset="0%" stop-color="#ff2d78" stop-opacity="0.1"/>
      <stop offset="100%" stop-color="#ff2d78" stop-opacity="0"/>
    </radialGradient>

    <!-- Green accent glow -->
    <radialGradient id="greenOrb" cx="10%" cy="15%" r="25%">
      <stop offset="0%" stop-color="#00ffa3" stop-opacity="0.08"/>
      <stop offset="100%" stop-color="#00ffa3" stop-opacity="0"/>
    </radialGradient>

    <!-- Name gradient -->
    <linearGradient id="nameGrad" x1="0%" y1="0%" x2="100%" y2="0%">
      <stop offset="0%" stop-color="#ffffff"/>
      <stop offset="50%" stop-color="#00e5ff"/>
      <stop offset="100%" stop-color="#ffffff"/>
    </linearGradient>

    <!-- Title gradient -->
    <linearGradient id="titleGrad" x1="0%" y1="0%" x2="100%" y2="0%">
      <stop offset="0%" stop-color="#00e5ff"/>
      <stop offset="40%" stop-color="#8b5cf6"/>
      <stop offset="80%" stop-color="#ff2d78"/>
      <stop offset="100%" stop-color="#00ffa3"/>
    </linearGradient>

    <!-- Node glow filter -->
    <filter id="glow" x="-50%" y="-50%" width="200%" height="200%">
      <feGaussianBlur stdDeviation="3" result="blur"/>
      <feComposite in="SourceGraphic" in2="blur" operator="over"/>
    </filter>

    <!-- Soft glow filter -->
    <filter id="softGlow" x="-30%" y="-30%" width="160%" height="160%">
      <feGaussianBlur stdDeviation="8" result="blur"/>
      <feComposite in="SourceGraphic" in2="blur" operator="over"/>
    </filter>

    <!-- Text glow -->
    <filter id="textGlow">
      <feGaussianBlur stdDeviation="4" result="blur"/>
      <feMerge><feMergeNode in="blur"/><feMergeNode in="SourceGraphic"/></feMerge>
    </filter>

    <!-- Hex clip path -->
    <clipPath id="hexClip">
      <polygon points="600,80 740,160 740,320 600,400 460,320 460,160"/>
    </clipPath>
  </defs>

  <!-- BASE BACKGROUND -->
  <rect width="1200" height="630" fill="url(#bgGrad)"/>

  <!-- AMBIENT GLOW ORBS -->
  <rect width="1200" height="630" fill="url(#cyanOrb)"/>
  <rect width="1200" height="630" fill="url(#purpleOrb)"/>
  <rect width="1200" height="630" fill="url(#pinkOrb)"/>
  <rect width="1200" height="630" fill="url(#greenOrb)"/>

  <!-- HEX GRID PATTERN (subtle) -->
  <g opacity="0.04" stroke="#00e5ff" stroke-width="0.5" fill="none">
    <!-- Row 1 -->
    <polygon points="0,0 56,0 84,49 56,98 0,98 -28,49"/>
    <polygon points="84,0 140,0 168,49 140,98 84,98 56,49"/>
    <polygon points="168,0 224,0 252,49 224,98 168,98 140,49"/>
    <polygon points="252,0 308,0 336,49 308,98 252,98 224,49"/>
    <polygon points="336,0 392,0 420,49 392,98 336,98 308,49"/>
    <polygon points="420,0 476,0 504,49 476,98 420,98 392,49"/>
    <polygon points="504,0 560,0 588,49 560,98 504,98 476,49"/>
    <polygon points="588,0 644,0 672,49 644,98 588,98 560,49"/>
    <polygon points="672,0 728,0 756,49 728,98 672,98 644,49"/>
    <polygon points="756,0 812,0 840,49 812,98 756,98 728,49"/>
    <polygon points="840,0 896,0 924,49 896,98 840,98 812,49"/>
    <polygon points="924,0 980,0 1008,49 980,98 924,98 896,49"/>
    <polygon points="1008,0 1064,0 1092,49 1064,98 1008,98 980,49"/>
    <polygon points="1092,0 1148,0 1176,49 1148,98 1092,98 1064,49"/>
    <!-- Row 2 -->
    <polygon points="28,49 84,49 112,98 84,147 28,147 0,98"/>
    <polygon points="112,49 168,49 196,98 168,147 112,147 84,98"/>
    <polygon points="196,49 252,49 280,98 252,147 196,147 168,98"/>
    <polygon points="280,49 336,49 364,98 336,147 280,147 252,98"/>
    <polygon points="364,49 420,49 448,98 420,147 364,147 336,98"/>
    <polygon points="448,49 504,49 532,98 504,147 448,147 420,98"/>
    <polygon points="532,49 588,49 616,98 588,147 532,147 504,98"/>
    <polygon points="616,49 672,49 700,98 672,147 616,147 588,98"/>
    <polygon points="700,49 756,49 784,98 756,147 700,147 672,98"/>
    <polygon points="784,49 840,49 868,98 840,147 784,147 756,98"/>
    <polygon points="868,49 924,49 952,98 924,147 868,147 840,98"/>
    <polygon points="952,49 1008,49 1036,98 1008,147 952,147 924,98"/>
    <polygon points="1036,49 1092,49 1120,98 1092,147 1036,147 1008,98"/>
    <polygon points="1120,49 1176,49 1204,98 1176,147 1120,147 1092,98"/>
    <!-- Row 3 -->
    <polygon points="0,98 56,98 84,147 56,196 0,196 -28,147"/>
    <polygon points="84,98 140,98 168,147 140,196 84,196 56,147"/>
    <polygon points="168,98 224,98 252,147 224,196 168,196 140,147"/>
    <polygon points="252,98 308,98 336,147 308,196 252,196 224,147"/>
    <polygon points="336,98 392,98 420,147 392,196 336,196 308,147"/>
    <polygon points="1008,98 1064,98 1092,147 1064,196 1008,196 980,147"/>
    <polygon points="1092,98 1148,98 1176,147 1148,196 1092,196 1064,147"/>
    <!-- Bottom rows -->
    <polygon points="0,490 56,490 84,539 56,588 0,588 -28,539"/>
    <polygon points="84,490 140,490 168,539 140,588 84,588 56,539"/>
    <polygon points="168,490 224,490 252,539 224,588 168,588 140,539"/>
    <polygon points="840,490 896,490 924,539 896,588 840,588 812,539"/>
    <polygon points="924,490 980,490 1008,539 980,588 924,588 896,539"/>
    <polygon points="1008,490 1064,490 1092,539 1064,588 1008,588 980,539"/>
    <polygon points="1092,490 1148,490 1176,539 1148,588 1092,588 1064,539"/>
  </g>

  <!-- ═══ NEURAL NETWORK VISUALIZATION (right side) ═══ -->
  <g opacity="0.6">
    <!-- Connection lines (faint) -->
    <!-- Layer 1 to 2 -->
    <line x1="820" y1="140" x2="940" y2="180" stroke="#00e5ff" stroke-width="0.6" opacity="0.3"/>
    <line x1="820" y1="140" x2="940" y2="240" stroke="#00e5ff" stroke-width="0.6" opacity="0.2"/>
    <line x1="820" y1="140" x2="940" y2="300" stroke="#8b5cf6" stroke-width="0.6" opacity="0.2"/>
    <line x1="820" y1="220" x2="940" y2="180" stroke="#00e5ff" stroke-width="0.6" opacity="0.2"/>
    <line x1="820" y1="220" x2="940" y2="240" stroke="#00e5ff" stroke-width="0.6" opacity="0.3"/>
    <line x1="820" y1="220" x2="940" y2="300" stroke="#8b5cf6" stroke-width="0.6" opacity="0.2"/>
    <line x1="820" y1="300" x2="940" y2="180" stroke="#8b5cf6" stroke-width="0.6" opacity="0.2"/>
    <line x1="820" y1="300" x2="940" y2="240" stroke="#8b5cf6" stroke-width="0.6" opacity="0.2"/>
    <line x1="820" y1="300" x2="940" y2="300" stroke="#8b5cf6" stroke-width="0.6" opacity="0.3"/>
    <line x1="820" y1="300" x2="940" y2="360" stroke="#00ffa3" stroke-width="0.6" opacity="0.2"/>
    <line x1="820" y1="380" x2="940" y2="300" stroke="#00ffa3" stroke-width="0.6" opacity="0.2"/>
    <line x1="820" y1="380" x2="940" y2="360" stroke="#00ffa3" stroke-width="0.6" opacity="0.3"/>
    <line x1="820" y1="380" x2="940" y2="420" stroke="#00ffa3" stroke-width="0.6" opacity="0.2"/>
    <line x1="820" y1="460" x2="940" y2="360" stroke="#00e5ff" stroke-width="0.6" opacity="0.2"/>
    <line x1="820" y1="460" x2="940" y2="420" stroke="#00e5ff" stroke-width="0.6" opacity="0.2"/>
    <line x1="820" y1="460" x2="940" y2="480" stroke="#00e5ff" stroke-width="0.6" opacity="0.3"/>
    <!-- Layer 2 to 3 -->
    <line x1="940" y1="180" x2="1060" y2="220" stroke="#00e5ff" stroke-width="0.6" opacity="0.3"/>
    <line x1="940" y1="180" x2="1060" y2="300" stroke="#8b5cf6" stroke-width="0.6" opacity="0.2"/>
    <line x1="940" y1="240" x2="1060" y2="220" stroke="#00e5ff" stroke-width="0.6" opacity="0.2"/>
    <line x1="940" y1="240" x2="1060" y2="300" stroke="#8b5cf6" stroke-width="0.6" opacity="0.3"/>
    <line x1="940" y1="300" x2="1060" y2="300" stroke="#8b5cf6" stroke-width="0.6" opacity="0.3"/>
    <line x1="940" y1="300" x2="1060" y2="380" stroke="#00ffa3" stroke-width="0.6" opacity="0.2"/>
    <line x1="940" y1="360" x2="1060" y2="300" stroke="#8b5cf6" stroke-width="0.6" opacity="0.2"/>
    <line x1="940" y1="360" x2="1060" y2="380" stroke="#00ffa3" stroke-width="0.6" opacity="0.3"/>
    <line x1="940" y1="420" x2="1060" y2="380" stroke="#00ffa3" stroke-width="0.6" opacity="0.2"/>
    <line x1="940" y1="420" x2="1060" y2="460" stroke="#ff2d78" stroke-width="0.6" opacity="0.2"/>
    <line x1="940" y1="480" x2="1060" y2="460" stroke="#ff2d78" stroke-width="0.6" opacity="0.3"/>
    <!-- Layer 3 to 4 -->
    <line x1="1060" y1="220" x2="1150" y2="300" stroke="#00e5ff" stroke-width="0.6" opacity="0.3"/>
    <line x1="1060" y1="300" x2="1150" y2="300" stroke="#8b5cf6" stroke-width="0.6" opacity="0.3"/>
    <line x1="1060" y1="300" x2="1150" y2="380" stroke="#00ffa3" stroke-width="0.6" opacity="0.2"/>
    <line x1="1060" y1="380" x2="1150" y2="300" stroke="#8b5cf6" stroke-width="0.6" opacity="0.2"/>
    <line x1="1060" y1="380" x2="1150" y2="380" stroke="#00ffa3" stroke-width="0.6" opacity="0.3"/>
    <line x1="1060" y1="460" x2="1150" y2="380" stroke="#ff2d78" stroke-width="0.6" opacity="0.2"/>
    <line x1="1060" y1="460" x2="1150" y2="460" stroke="#ff2d78" stroke-width="0.6" opacity="0.3"/>

    <!-- Layer 1 nodes (input) -->
    <circle cx="820" cy="140" r="7" fill="#00e5ff" opacity="0.9" filter="url(#glow)"/>
    <circle cx="820" cy="140" r="14" fill="#00e5ff" opacity="0.12"/>
    <circle cx="820" cy="220" r="7" fill="#00e5ff" opacity="0.9" filter="url(#glow)"/>
    <circle cx="820" cy="220" r="14" fill="#00e5ff" opacity="0.12"/>
    <circle cx="820" cy="300" r="7" fill="#8b5cf6" opacity="0.9" filter="url(#glow)"/>
    <circle cx="820" cy="300" r="14" fill="#8b5cf6" opacity="0.12"/>
    <circle cx="820" cy="380" r="7" fill="#00ffa3" opacity="0.9" filter="url(#glow)"/>
    <circle cx="820" cy="380" r="14" fill="#00ffa3" opacity="0.12"/>
    <circle cx="820" cy="460" r="7" fill="#00e5ff" opacity="0.9" filter="url(#glow)"/>
    <circle cx="820" cy="460" r="14" fill="#00e5ff" opacity="0.12"/>

    <!-- Layer 2 nodes (hidden 1) -->
    <circle cx="940" cy="180" r="8" fill="#00e5ff" opacity="0.85" filter="url(#glow)"/>
    <circle cx="940" cy="180" r="16" fill="#00e5ff" opacity="0.1"/>
    <circle cx="940" cy="240" r="8" fill="#8b5cf6" opacity="0.85" filter="url(#glow)"/>
    <circle cx="940" cy="240" r="16" fill="#8b5cf6" opacity="0.1"/>
    <circle cx="940" cy="300" r="8" fill="#8b5cf6" opacity="0.9" filter="url(#glow)"/>
    <circle cx="940" cy="300" r="16" fill="#8b5cf6" opacity="0.12"/>
    <circle cx="940" cy="360" r="8" fill="#00ffa3" opacity="0.85" filter="url(#glow)"/>
    <circle cx="940" cy="360" r="16" fill="#00ffa3" opacity="0.1"/>
    <circle cx="940" cy="420" r="8" fill="#00ffa3" opacity="0.8" filter="url(#glow)"/>
    <circle cx="940" cy="420" r="16" fill="#00ffa3" opacity="0.08"/>
    <circle cx="940" cy="480" r="8" fill="#ff2d78" opacity="0.8" filter="url(#glow)"/>
    <circle cx="940" cy="480" r="16" fill="#ff2d78" opacity="0.1"/>

    <!-- Layer 3 nodes (hidden 2) -->
    <circle cx="1060" cy="220" r="8" fill="#00e5ff" opacity="0.85" filter="url(#glow)"/>
    <circle cx="1060" cy="220" r="16" fill="#00e5ff" opacity="0.1"/>
    <circle cx="1060" cy="300" r="9" fill="#8b5cf6" opacity="0.95" filter="url(#glow)"/>
    <circle cx="1060" cy="300" r="18" fill="#8b5cf6" opacity="0.15"/>
    <circle cx="1060" cy="380" r="8" fill="#00ffa3" opacity="0.85" filter="url(#glow)"/>
    <circle cx="1060" cy="380" r="16" fill="#00ffa3" opacity="0.1"/>
    <circle cx="1060" cy="460" r="8" fill="#ff2d78" opacity="0.8" filter="url(#glow)"/>
    <circle cx="1060" cy="460" r="16" fill="#ff2d78" opacity="0.1"/>

    <!-- Layer 4 nodes (output) -->
    <circle cx="1150" cy="300" r="10" fill="#00e5ff" opacity="1" filter="url(#glow)"/>
    <circle cx="1150" cy="300" r="22" fill="#00e5ff" opacity="0.15"/>
    <circle cx="1150" cy="300" r="32" fill="#00e5ff" opacity="0.06"/>
    <circle cx="1150" cy="380" r="9" fill="#00ffa3" opacity="0.9" filter="url(#glow)"/>
    <circle cx="1150" cy="380" r="18" fill="#00ffa3" opacity="0.12"/>
    <circle cx="1150" cy="460" r="8" fill="#ff2d78" opacity="0.8" filter="url(#glow)"/>
    <circle cx="1150" cy="460" r="16" fill="#ff2d78" opacity="0.1"/>
  </g>

  <!-- ═══ LEFT SIDE DECORATIVE CIRCUIT LINES ═══ -->
  <g stroke="#00e5ff" stroke-width="0.8" fill="none" opacity="0.15">
    <path d="M 60 100 L 120 100 L 140 120 L 140 200"/>
    <path d="M 60 520 L 100 520 L 120 500 L 120 440 L 140 420"/>
    <path d="M 180 80 L 180 140 L 200 160 L 280 160"/>
    <circle cx="140" cy="200" r="3" fill="#00e5ff" opacity="0.6"/>
    <circle cx="120" cy="440" r="3" fill="#00e5ff" opacity="0.6"/>
    <circle cx="280" cy="160" r="3" fill="#00e5ff" opacity="0.6"/>
    <line x1="80" y1="300" x2="160" y2="300"/>
    <line x1="160" y1="300" x2="180" y2="320"/>
    <line x1="180" y1="320" x2="180" y2="380"/>
    <circle cx="180" cy="380" r="3" fill="#8b5cf6" opacity="0.6"/>
  </g>

  <!-- ═══ MAIN CONTENT ═══ -->

  <!-- TOP BAR - terminal style -->
  <rect x="60" y="45" width="180" height="24" rx="3" fill="#0d2035" stroke="#0f2a42" stroke-width="1"/>
  <circle cx="78" cy="57" r="4" fill="#ff5f57"/>
  <circle cx="93" cy="57" r="4" fill="#febc2e"/>
  <circle cx="108" cy="57" r="4" fill="#28c840"/>
  <text x="125" y="61" font-family="monospace" font-size="9" fill="#3a5a75">portfolio.aiml</text>

  <!-- Status indicator -->
  <circle cx="980" cy="57" r="5" fill="#00ffa3"/>
  <circle cx="980" cy="57" r="9" fill="#00ffa3" opacity="0.2"/>
  <text x="994" y="62" font-family="monospace" font-size="10" fill="#3a5a75">● LIVE</text>

  <!-- EYEBROW BADGE -->
  <rect x="60" y="110" width="198" height="26" rx="13" fill="rgba(0,229,255,0.07)" stroke="rgba(0,229,255,0.3)" stroke-width="1"/>
  <text x="75" y="128" font-family="monospace" font-size="10" fill="#00e5ff" letter-spacing="2">▸ AIML ENGINEER</text>

  <!-- MAIN NAME -->
  <text x="60" y="218" font-family="'Segoe UI', Arial, sans-serif" font-size="52" font-weight="900" fill="url(#nameGrad)" letter-spacing="1" filter="url(#textGlow)">Kandhala</text>
  <text x="60" y="278" font-family="'Segoe UI', Arial, sans-serif" font-size="52" font-weight="900" fill="url(#nameGrad)" letter-spacing="1" filter="url(#textGlow)">Moulya Reddy</text>

  <!-- TAGLINE / TITLE -->
  <text x="60" y="330" font-family="'Segoe UI', Arial, sans-serif" font-size="30" font-weight="800" fill="url(#titleGrad)" letter-spacing="-0.5">Building Intelligence</text>

  <!-- DIVIDER LINE -->
  <rect x="60" y="350" width="80" height="2" rx="1" fill="#00e5ff"/>
  <rect x="148" y="350" width="40" height="2" rx="1" fill="#8b5cf6"/>
  <rect x="196" y="350" width="20" height="2" rx="1" fill="#ff2d78"/>

  <!-- DESCRIPTION -->
  <text x="60" y="390" font-family="monospace" font-size="13" fill="#4d7a9a">B.Tech · Artificial Intelligence &amp; Machine Learning</text>
  <text x="60" y="412" font-family="monospace" font-size="13" fill="#4d7a9a">Deep RL · Generative AI · Computer Vision · NLP</text>

  <!-- TECH PILLS -->
  <!-- DRL pill -->
  <rect x="60" y="440" width="78" height="22" rx="11" fill="rgba(0,229,255,0.1)" stroke="rgba(0,229,255,0.35)" stroke-width="1"/>
  <text x="99" y="456" font-family="monospace" font-size="10" fill="#00e5ff" text-anchor="middle">Deep RL</text>

  <!-- GANs pill -->
  <rect x="148" y="440" width="58" height="22" rx="11" fill="rgba(139,92,246,0.1)" stroke="rgba(139,92,246,0.35)" stroke-width="1"/>
  <text x="177" y="456" font-family="monospace" font-size="10" fill="#8b5cf6" text-anchor="middle">GANs</text>

  <!-- SimCLR pill -->
  <rect x="216" y="440" width="66" height="22" rx="11" fill="rgba(0,255,163,0.08)" stroke="rgba(0,255,163,0.3)" stroke-width="1"/>
  <text x="249" y="456" font-family="monospace" font-size="10" fill="#00ffa3" text-anchor="middle">SimCLR</text>

  <!-- SAM pill -->
  <rect x="292" y="440" width="50" height="22" rx="11" fill="rgba(255,45,120,0.08)" stroke="rgba(255,45,120,0.3)" stroke-width="1"/>
  <text x="317" y="456" font-family="monospace" font-size="10" fill="#ff2d78" text-anchor="middle">SAM</text>

  <!-- NLP pill -->
  <rect x="352" y="440" width="44" height="22" rx="11" fill="rgba(255,214,10,0.08)" stroke="rgba(255,214,10,0.25)" stroke-width="1"/>
  <text x="374" y="456" font-family="monospace" font-size="10" fill="#ffd60a" text-anchor="middle">NLP</text>

  <!-- PyTorch pill -->
  <rect x="406" y="440" width="66" height="22" rx="11" fill="rgba(255,107,53,0.08)" stroke="rgba(255,107,53,0.25)" stroke-width="1"/>
  <text x="439" y="456" font-family="monospace" font-size="10" fill="#ff6b35" text-anchor="middle">PyTorch</text>

  <!-- URL / CTA -->
  <rect x="60" y="495" width="300" height="38" rx="4" fill="rgba(0,229,255,0.06)" stroke="rgba(0,229,255,0.2)" stroke-width="1"/>
  <text x="80" y="519" font-family="monospace" font-size="13" fill="#3a5a75">🔗</text>
  <text x="100" y="519" font-family="monospace" font-size="13" fill="#00e5ff">moulya-reddy.github.io</text>

  <!-- GitHub icon hint -->
  <text x="420" y="519" font-family="monospace" font-size="11" fill="#3a5a75">⌥ github.com/Moulya-Reddy</text>

  <!-- BOTTOM ACCENT LINE -->
  <rect x="0" y="622" width="1200" height="8" fill="url(#titleGrad)" opacity="0.6"/>

  <!-- ═══ SCATTERED FLOATING NODES (decoration) ═══ -->
  <!-- Left cluster -->
  <circle cx="720" cy="120" r="3" fill="#00e5ff" opacity="0.5" filter="url(#glow)"/>
  <circle cx="750" cy="150" r="4" fill="#8b5cf6" opacity="0.6" filter="url(#glow)"/>
  <circle cx="780" cy="110" r="2.5" fill="#00ffa3" opacity="0.5"/>
  <circle cx="730" cy="185" r="3.5" fill="#00e5ff" opacity="0.4"/>
  <line x1="720" y1="120" x2="750" y2="150" stroke="#00e5ff" stroke-width="0.5" opacity="0.3"/>
  <line x1="750" y1="150" x2="780" y2="110" stroke="#8b5cf6" stroke-width="0.5" opacity="0.25"/>
  <line x1="750" y1="150" x2="730" y2="185" stroke="#8b5cf6" stroke-width="0.5" opacity="0.2"/>

  <!-- Bottom cluster -->
  <circle cx="680" cy="540" r="3" fill="#ff2d78" opacity="0.5"/>
  <circle cx="720" cy="520" r="4" fill="#00e5ff" opacity="0.5" filter="url(#glow)"/>
  <circle cx="760" cy="550" r="3" fill="#8b5cf6" opacity="0.5"/>
  <line x1="680" y1="540" x2="720" y2="520" stroke="#ff2d78" stroke-width="0.5" opacity="0.25"/>
  <line x1="720" y1="520" x2="760" y2="550" stroke="#00e5ff" stroke-width="0.5" opacity="0.25"/>

  <!-- Top right floating -->
  <circle cx="600" cy="90" r="2.5" fill="#ffd60a" opacity="0.4"/>
  <circle cx="640" cy="70" r="2" fill="#00ffa3" opacity="0.4"/>
  <circle cx="580" cy="60" r="3" fill="#00e5ff" opacity="0.3" filter="url(#glow)"/>
  <line x1="580" y1="60" x2="600" y2="90" stroke="#00e5ff" stroke-width="0.4" opacity="0.2"/>
  <line x1="600" y1="90" x2="640" y2="70" stroke="#ffd60a" stroke-width="0.4" opacity="0.2"/>
</svg>
